<?xml version="1.0" encoding="UTF-8" standalone="no"?>
<!DOCTYPE svg PUBLIC "-//W3C//DTD SVG 1.1//EN" "http://www.w3.org/Graphics/SVG/1.1/DTD/svg11.dtd">
<svg version="1.1" xmlns="http://www.w3.org/2000/svg" xmlns:xlink="http://www.w3.org/1999/xlink" preserveAspectRatio="xMidYMid meet" viewBox="0 0 100 68" width="100" height="68"><defs>
<path d="M97.12 0C98.71 0 100 1.29 100 2.88C100 3.91 100 4.09 100 5.12C100 6.71 98.71 8 97.12 8C77.69 8 22.31 8 2.88 8C1.29 8 0 6.71 0 5.12C0 4.09 0 3.91 0 2.88C0 1.29 1.29 0 2.88 0C22.31 0 77.69 0 97.12 0Z" id="n1OjTyJPD7"></path>
<path d="M97.12 30C98.71 30 100 31.29 100 32.88C100 33.91 100 34.09 100 35.12C100 36.71 98.71 38 97.12 38C77.69 38 22.31 38 2.88 38C1.29 38 0 36.71 0 35.12C0 34.09 0 33.91 0 32.88C0 31.29 1.29 30 2.88 30C22.31 30 77.69 30 97.12 30Z" id="i4NRHdy5Jk"></path>
<path d="M97.12 60C98.71 60 100 61.29 100 62.88C100 63.91 100 64.09 100 65.12C100 66.71 98.71 68 97.12 68C77.69 68 22.31 68 2.88 68C1.29 68 0 66.71 0 65.12C0 64.09 0 63.91 0 62.88C0 61.29 1.29 60 2.88 60C22.31 60 77.69 60 97.12 60Z" id="cX5SHDA1n"></path></defs><g><g><g>
<use xlink:href="#n1OjTyJPD7" opacity="1" fill="#17160a" fill-opacity="1"></use></g><g><use xlink:href="#i4NRHdy5Jk" opacity="1" fill="#17160a" fill-opacity="1"></use></g><g><use xlink:href="#cX5SHDA1n" opacity="1" fill="#17160a" fill-opacity="1"></use></g></g></g></svg>